# xmcd
#
# Track frame offsets: 
#        150
#        9043
#        22649
#        34889
#        44969
#        58456
#        73048
#        83308
#        97303
#        107978
#        122412
#        142505
#        152691
#        163874
#        177756
#        188025
#        196578
#        209881
#        223594
#        238273
#        248161
#        259721
#        270417
#        282408
#        323114
#        340894
#
# Disc length: 4784 seconds
#
# Revision: 0
# Processed by: cddbd v1.5.2PL0 Copyright (c) Steve Scherf et al.
# Submitted via: ExactAudioCopy v0.95b4
#
DISCID=7512ae1a
DTITLE=The Phaetons - Cream of the Crop live
DYEAR=1900
DGENRE=Blues
TTITLE0=Ronnie Johnnie
TTITLE1=Let The Good Times Roll
TTITLE2=Folsom Prison
TTITLE3=Mean Eyed Cat
TTITLE4=Mary Had A Little Lamb
TTITLE5=Polk Salad Annie
TTITLE6=Trailer Park Woman
TTITLE7=Daddy Yar
TTITLE8=Slow Down
TTITLE9=Don't Stay Out All Night Long
TTITLE10=Bad Case of Love
TTITLE11=Mercy
TTITLE12=Skynard
TTITLE13=She's Fine
TTITLE14=Red Hot
TTITLE15=Blues Had A Baby Named Rock and Roll
TTITLE16=Crazy 'bout My Baby
TTITLE17=Got My Mojo Workin'
TTITLE18=Dust My Broom
TTITLE19=Meat Man
TTITLE20=Crossroads
TTITLE21=Talk To Me Baby
TTITLE22=Stop Breakin' Down
TTITLE23=John Lee Hooker Medly
TTITLE24=I Love You So (FMICS)
TTITLE25=Pig Mobile
EXTD=
EXTT0=
EXTT1=
EXTT2=
EXTT3=
EXTT4=
EXTT5=
EXTT6=
EXTT7=
EXTT8=
EXTT9=
EXTT10=
EXTT11=
EXTT12=
EXTT13=
EXTT14=
EXTT15=
EXTT16=
EXTT17=
EXTT18=
EXTT19=
EXTT20=
EXTT21=
EXTT22=
EXTT23=
EXTT24=
EXTT25=
PLAYORDER=
